<?xml version="1.0" encoding="UTF-8"?>
<svg version="1.1" xmlns="http://www.w3.org/2000/svg" width="171" height="196">
<path d="M0 0 C56.43 0 112.86 0 171 0 C171 64.68 171 129.36 171 196 C114.57 196 58.14 196 0 196 C0 131.32 0 66.64 0 0 Z " fill="#092516" transform="translate(0,0)"/>
<path d="M0 0 C12.45618167 6.55820166 21.75147322 18.09309239 26 31.5 C26.88833616 34.74242698 27.09462635 37.64076452 27 41 C28.0725 41.061875 29.145 41.12375 30.25 41.1875 C44.84872829 43.0928014 57.24138944 52.61585747 66 64 C67.7634693 66.37188997 68.82990416 68.23431893 70 71 C66.14852276 83.32472716 56.07678716 91.54889766 45 97.375 C30.96218708 103.86230764 17.25547705 105.0919955 2.36328125 100.3359375 C-5.57125477 97.18424026 -12.71058105 92.7653007 -19 87 C-19.64423636 98.9362681 -18.77269081 110.67332436 -10.75 120.16015625 C-9.88375 121.07087891 -9.88375 121.07087891 -9 122 C-8.34 122.69996094 -7.68 123.39992188 -7 124.12109375 C-1.57081304 129.40485605 3.77817285 131.90448622 11 134 C11.99 134.33 12.98 134.66 14 135 C25.33702446 136.17221819 36.06808194 133.74492875 45.5 127.1875 C49.35632046 124.00437342 52.22922938 120.13516525 55 116 C59.8274799 117.41292095 63.7162359 119.42974154 68 122 C61.64484968 135.39333082 50.84257881 142.57649392 37.453125 148.0390625 C23.73630394 152.59713658 8.61412297 151.23473576 -4.24560547 144.93261719 C-18.99512795 137.09193031 -28.47918136 124.04002334 -33.45800781 108.24951172 C-36.04561748 97.50976599 -34.84687343 85.89353563 -30.77734375 75.7265625 C-29.44138338 71.04063116 -30.85509837 67.20885298 -32.5625 62.8125 C-36.55074039 49.63741733 -34.75349173 35.30810255 -29 23 C-24.042593 14.0815879 -11.77659707 -3.62356833 0 0 Z " fill="#84CC29" transform="translate(68,28)"/>
<path d="M0 0 C1.10601562 -0.01417969 2.21203125 -0.02835938 3.3515625 -0.04296875 C6.36915914 0.18705477 7.9701264 0.37568346 10.375 2.1875 C13.67433059 8.16819131 13.28638483 16.07628961 11.83984375 22.6015625 C8.75966768 31.32031226 3.01884396 37.89766959 -4.91015625 42.51953125 C-12.59575599 46.05615682 -20.76166186 46.31771239 -28.953125 44.4140625 C-31.625 43.1875 -31.625 43.1875 -32.484375 41.546875 C-33.22305489 29.15346793 -33.72926479 19.80184088 -25.4375 9.9375 C-17.93743622 2.01129623 -10.7947805 0.06320129 0 0 Z " fill="#84CC29" transform="translate(134.625,17.8125)"/>
<path d="M0 0 C1.95541875 1.43052373 3.73306627 2.92285713 5.50390625 4.57421875 C6.49390625 5.44046875 7.48390625 6.30671875 8.50390625 7.19921875 C10.50390625 9.57421875 10.50390625 9.57421875 10.50390625 13.57421875 C4.26007983 21.16031703 -4.77558542 26.38321587 -14.49609375 27.57421875 C-28.33326373 28.36578403 -37.62048224 26.55512442 -48.49609375 17.57421875 C-50.36979451 15.65010452 -51.90583237 13.74757597 -53.49609375 11.57421875 C-40.33692084 -5.39418842 -19.2881811 -11.01750563 0 0 Z " fill="#092715" transform="translate(109.49609375,88.42578125)"/>
<path d="M0 0 C8.23090411 3.53800555 12.74001137 11.66061803 16.1875 19.51953125 C17 22 17 22 17 26 C16.44054687 26.06316406 15.88109375 26.12632813 15.3046875 26.19140625 C4.04046819 27.9118256 -6.36546993 33.67942015 -15 41 C-18.03098265 31.90705206 -15.7314862 21.72784379 -11.7109375 13.296875 C-8.56620137 7.68007357 -5.1143231 3.88688556 0 0 Z " fill="#0A2A14" transform="translate(64,44)"/>
<path d="M0 0 C0.35773958 3.75626559 0.13556761 5.73929307 -1.625 9.125 C-5.72446914 14.08751527 -9.57741593 16.38832533 -16 17 C-16.34842354 13.34155285 -16.13132751 11.26812701 -14.5 7.9375 C-10.44213799 3.16951214 -6.3687528 0 0 0 Z " fill="#0C2C13" transform="translate(132,32)"/>
<path d="M0 0 C0 0.33 0 0.66 0 1 C-1.30195312 0.98839844 -2.60390625 0.97679688 -3.9453125 0.96484375 C-5.67187356 0.95546027 -7.39843618 0.94636066 -9.125 0.9375 C-9.9809375 0.92912109 -10.836875 0.92074219 -11.71875 0.91210938 C-16.26678411 0.89461694 -20.52383164 1.06807642 -25 2 C-23 -1 -23 -1 -21 -1.6875 C-13.60237711 -2.45808572 -7.13937571 -2.11537058 0 0 Z " fill="#0A3108" transform="translate(101,85)"/>
<path d="M0 0 C2.3125 1.5625 2.3125 1.5625 4 3 C3.236875 2.835 2.47375 2.67 1.6875 2.5 C-2.43394495 1.73321954 -5.90842057 2.2726081 -10 3 C-6.53199968 -0.6256367 -4.95375069 -1.41535734 0 0 Z " fill="#7EB935" transform="translate(68,28)"/>
<path d="M0 0 C0.33 0.66 0.66 1.32 1 2 C-4 8.57142857 -4 8.57142857 -9 10 C-8.06409496 8.8944811 -7.12620142 7.79064547 -6.1875 6.6875 C-5.66542969 6.07261719 -5.14335938 5.45773438 -4.60546875 4.82421875 C-3.12827531 3.14575321 -1.59960869 1.56117966 0 0 Z " fill="#82C33A" transform="translate(55,32)"/>
<path d="M0 0 C1.258125 0.12375 2.51625 0.2475 3.8125 0.375 C4.87404297 0.47941406 4.87404297 0.47941406 5.95703125 0.5859375 C8 1 8 1 11 3 C9.741875 3.020625 8.48375 3.04125 7.1875 3.0625 C6.47980469 3.07410156 5.77210937 3.08570312 5.04296875 3.09765625 C3 3 3 3 0 2 C0 1.34 0 0.68 0 0 Z " fill="#70AB32" transform="translate(95,69)"/>
<path d="M0 0 C1.32 0.33 2.64 0.66 4 1 C4.33 2.32 4.66 3.64 5 5 C3.35 5.33 1.7 5.66 0 6 C0 4.02 0 2.04 0 0 Z " fill="#0E3609" transform="translate(116,43)"/>
<path d="M0 0 C-0.5625 1.875 -0.5625 1.875 -2 4 C-5.625 5.25 -5.625 5.25 -9 6 C-3.2 0 -3.2 0 0 0 Z " fill="#0E340B" transform="translate(72,87)"/>
<path d="M0 0 C0.99 0.33 1.98 0.66 3 1 C0.59563974 4.60654039 -0.94679607 4.85452932 -5 6 C-3.35 4.02 -1.7 2.04 0 0 Z " fill="#173B11" transform="translate(128,113)"/>
<path d="M0 0 C3.875 1.75 3.875 1.75 5 4 C4.0925 3.79375 3.185 3.5875 2.25 3.375 C-1.11027897 2.9872755 -2.24075815 3.19588033 -5 5 C-3.35 3.35 -1.7 1.7 0 0 Z " fill="#0D3408" transform="translate(64,44)"/>
<path d="M0 0 C-3.28463659 2.18975773 -6.20696275 2.99806563 -10 4 C-10 3.34 -10 2.68 -10 2 C-6.3558226 -0.4294516 -4.28758728 -0.16179575 0 0 Z " fill="#88C93E" transform="translate(81,83)"/>
</svg>
